<svg width="158" height="111" viewBox="0 0 158 111" fill="none" xmlns="http://www.w3.org/2000/svg">
<path d="M65.3813 52.2667V35.4667H71.5253C72.6853 35.4667 73.6973 35.6507 74.5613 36.0187C75.4333 36.3867 76.1093 36.9467 76.5893 37.6987C77.0693 38.4507 77.3093 39.4027 77.3093 40.5547C77.3093 41.7867 77.0453 42.7667 76.5173 43.4947C75.9973 44.2147 75.3093 44.7867 74.4533 45.2107L78.2453 52.2667H74.8133L71.5733 46.0267C71.5493 46.0267 71.5293 46.0267 71.5133 46.0267C71.4973 46.0267 71.4773 46.0267 71.4533 46.0267H68.4533V52.2667H65.3813ZM68.4533 43.4587H70.7093C71.9733 43.4587 72.8533 43.2027 73.3493 42.6907C73.8453 42.1707 74.0933 41.5147 74.0933 40.7227C74.0933 39.8827 73.8493 39.2267 73.3613 38.7547C72.8733 38.2747 72.0293 38.0347 70.8293 38.0347H68.4533V43.4587ZM80.4048 52.2667V35.4667H91.1568V38.4427H83.5488V42.0187H89.4528V44.9947H83.5488V49.2907H91.3968V52.2667H80.4048ZM98.9174 52.6027C98.2374 52.6027 97.5374 52.5347 96.8174 52.3987C96.0974 52.2707 95.4294 52.1147 94.8134 51.9307C94.1974 51.7387 93.7094 51.5547 93.3494 51.3787L93.7094 48.1147C94.2694 48.3867 94.8534 48.6387 95.4614 48.8707C96.0694 49.1027 96.6934 49.2907 97.3334 49.4347C97.9734 49.5787 98.6214 49.6507 99.2774 49.6507C100.093 49.6507 100.749 49.4907 101.245 49.1707C101.741 48.8507 101.989 48.3627 101.989 47.7067C101.989 47.2027 101.849 46.7987 101.569 46.4947C101.289 46.1827 100.861 45.9067 100.285 45.6667C99.7094 45.4187 98.9734 45.1387 98.0774 44.8267C97.1814 44.5147 96.3774 44.1627 95.6654 43.7707C94.9534 43.3707 94.3894 42.8667 93.9734 42.2587C93.5574 41.6507 93.3494 40.8747 93.3494 39.9307C93.3494 39.0027 93.5774 38.1787 94.0334 37.4587C94.4894 36.7307 95.1694 36.1627 96.0734 35.7547C96.9854 35.3387 98.1174 35.1307 99.4694 35.1307C100.493 35.1307 101.469 35.2467 102.397 35.4787C103.325 35.7027 104.117 35.9467 104.773 36.2107L104.461 39.3547C103.517 38.9307 102.629 38.6107 101.797 38.3947C100.973 38.1707 100.133 38.0587 99.2774 38.0587C98.3814 38.0587 97.6894 38.2067 97.2014 38.5027C96.7134 38.7987 96.4694 39.2427 96.4694 39.8347C96.4694 40.3067 96.6054 40.6867 96.8774 40.9747C97.1494 41.2627 97.5374 41.5107 98.0414 41.7187C98.5454 41.9187 99.1494 42.1307 99.8534 42.3547C101.069 42.7387 102.089 43.1627 102.913 43.6267C103.745 44.0827 104.369 44.6387 104.785 45.2947C105.209 45.9427 105.421 46.7467 105.421 47.7067C105.421 48.1867 105.345 48.7107 105.193 49.2787C105.041 49.8387 104.741 50.3707 104.293 50.8747C103.845 51.3787 103.189 51.7947 102.325 52.1227C101.469 52.4427 100.333 52.6027 98.9174 52.6027ZM114.735 52.6027C113.159 52.6027 111.855 52.2907 110.823 51.6667C109.799 51.0427 109.035 50.1667 108.531 49.0387C108.027 47.9107 107.775 46.5867 107.775 45.0667V35.4667H110.847V44.2747C110.847 45.0747 110.899 45.8067 111.003 46.4707C111.107 47.1267 111.295 47.6947 111.567 48.1747C111.847 48.6467 112.243 49.0107 112.755 49.2667C113.267 49.5227 113.927 49.6507 114.735 49.6507C115.543 49.6507 116.203 49.5227 116.715 49.2667C117.227 49.0107 117.619 48.6467 117.891 48.1747C118.171 47.6947 118.363 47.1267 118.467 46.4707C118.571 45.8067 118.623 45.0747 118.623 44.2747V35.4667H121.695V45.0667C121.695 46.5867 121.443 47.9107 120.939 49.0387C120.435 50.1667 119.667 51.0427 118.635 51.6667C117.611 52.2907 116.311 52.6027 114.735 52.6027ZM124.191 52.2667L126.519 35.4667H129.039L133.143 43.1227L137.223 35.4667H139.743L142.071 52.2667H138.879L137.271 39.6427L138.111 39.8107L133.143 48.7387L128.151 39.8347L128.991 39.6667L127.383 52.2667H124.191ZM144.858 52.2667V35.4667H155.61V38.4427H148.002V42.0187H153.906V44.9947H148.002V49.2907H155.85V52.2667H144.858Z" fill="black"/>
<path d="M99.5333 1.26665L67.5333 110.267" stroke="black" stroke-width="2"/>
<path d="M94.5333 4.26665L1.53333 46.2667" stroke="black" stroke-width="2"/>
<path d="M65.5333 105.267L58.5333 52.2667" stroke="black" stroke-width="2"/>
<path d="M0.533325 48.2667L55.5333 54.2667" stroke="black" stroke-width="2"/>
</svg>
